<!-- icon666.com - MILLIONS vector ICONS FREE --><svg viewBox="0 0 64 64" xmlns="http://www.w3.org/2000/svg"><g id="Layer_39" data-name="Layer 39"><path d="m32 2.5a21.53 21.53 0 0 0 -21.5 21.5c0 11.44 19.5 35.9 20.33 36.94a1.5 1.5 0 0 0 2.34 0c.83-1.04 20.33-25.5 20.33-36.94a21.52 21.52 0 0 0 -21.5-21.5z" fill="#ed1c24" style="fill: rgb(53, 237, 29);"></path><path d="m32 12.64a11.36 11.36 0 1 0 11.36 11.36 11.38 11.38 0 0 0 -11.36-11.36z" fill="#e8ebf4"></path><path d="m32 2.5a21.53 21.53 0 0 0 -21.5 21.5c0 11.44 19.5 35.9 20.33 36.94a1.5 1.5 0 0 0 2.34 0c.83-1.04 20.33-25.5 20.33-36.94a21.52 21.52 0 0 0 -21.5-21.5zm0 55.06c-4.24-5.49-18.5-24.66-18.5-33.56a18.5 18.5 0 0 1 37 0c0 8.9-14.26 28.07-18.5 33.56z" fill="#000000"></path><path d="m32 12.64a11.36 11.36 0 1 0 11.36 11.36 11.38 11.38 0 0 0 -11.36-11.36zm0 19.72a8.36 8.36 0 1 1 8.36-8.36 8.37 8.37 0 0 1 -8.36 8.36z" fill="#000000"></path></g></svg>